<?xml version="1.0" encoding="UTF-8" standalone="no"?>
<svg width="171px" height="70px" viewBox="0 0 171 70" version="1.1" xmlns="http://www.w3.org/2000/svg" xmlns:xlink="http://www.w3.org/1999/xlink">
    <!-- Generator: sketchtool 41 (35326) - http://www.bohemiancoding.com/sketch -->
    <title>7F19F9E3-0897-4A64-8F8E-33446D67BAA2</title>
    <desc>Created with sketchtool.</desc>
    <defs>
        <polygon id="path-1" points="0 69.8352308 170.389692 69.8352308 170.389692 0 0 0"></polygon>
    </defs>
    <g id="Page-1" stroke="none" stroke-width="1" fill="none" fill-rule="evenodd">
        <g id="Fis-imac" transform="translate(-389.000000, -30.000000)">
            <g id="Header">
                <g id="Alternativo">
                    <g id="LogoAlterno" transform="translate(389.000000, 30.000000)">
                        <g id="Logo">
                            <polygon id="Fill-1" fill="#FFFFFF" points="69.2736872 0.658682051 105.251892 0.658682051 105.251892 9.81432308 79.6688667 9.81432308 79.6688667 19.7604256 102.214251 19.7604256 102.214251 28.9157077 79.6688667 28.9157077 79.6688667 46.7660667 69.2736872 46.7660667"></polygon>
                            <polygon id="Fill-2" fill="#FFFFFF" points="114.02641 46.7661026 124.42159 46.7661026 124.42159 0.658717949 114.02641 0.658717949"></polygon>
                            <path d="M153.109385,47.4245333 C149.508513,47.4245333 145.976205,46.8203795 142.511744,45.6131487 C139.045846,44.4059179 135.896564,42.5503795 133.061385,40.0476103 L139.204154,32.8677641 C141.364103,34.5804308 143.580051,35.9420205 145.853077,36.9518154 C148.124667,37.9623282 150.612,38.4666872 153.311846,38.4666872 C155.471795,38.4666872 157.147846,38.0825846 158.340718,37.3140205 C159.532513,36.5461744 160.129487,35.4810974 160.129487,34.1195077 L160.129487,33.9877641 C160.129487,33.3290462 160.004923,32.7475077 159.757231,32.2420718 C159.508103,31.7377128 159.034615,31.2653026 158.335333,30.8259179 C157.636051,30.3876103 156.665744,29.9482256 155.425487,29.508841 C154.183795,29.0701744 152.571282,28.6092513 150.586513,28.1253538 C148.194308,27.5553026 146.028974,26.9181231 144.088359,26.2152513 C142.147744,25.5134564 140.501487,24.6458154 139.148154,23.6134051 C137.793744,22.5824308 136.745538,21.2980205 136.000667,19.7601744 C135.256154,18.2237641 134.883897,16.3136615 134.883897,14.0298667 L134.883897,13.8981231 C134.883897,11.7902256 135.285949,9.89161026 136.09041,8.20048205 C136.895231,6.51043077 138.023846,5.05012308 139.477333,3.82027692 C140.930462,2.59150769 142.665385,1.64668718 144.683179,0.987969231 C146.699897,0.329610256 148.924103,7.17948718e-05 151.354359,7.17948718e-05 C154.818821,7.17948718e-05 158.002923,0.505148718 160.90559,1.51494359 C163.808256,2.52545641 166.474718,3.9746359 168.904256,5.86212308 L163.504564,13.5028923 C161.388769,12.0982256 159.319282,10.9897128 157.294308,10.1766359 C155.269333,9.3646359 153.244359,8.95791795 151.219026,8.95791795 C149.194051,8.95791795 147.67559,9.34273846 146.662923,10.1105846 C145.650615,10.8795077 145.144103,11.8347385 145.144103,12.9759179 L145.144103,13.1076615 C145.144103,13.8550462 145.290923,14.5022769 145.583846,15.0507897 C145.877128,15.6003795 146.406615,16.0943282 147.174462,16.5326359 C147.941231,16.9723795 148.990513,17.3891487 150.32159,17.7843795 C151.652667,18.1792513 153.332667,18.6405333 155.364103,19.1675077 C157.755231,19.7831487 159.886821,20.4745333 161.759949,21.2423795 C163.632,22.0109436 165.211128,22.9331487 166.497692,24.0086359 C167.783179,25.0852 168.753846,26.3469949 169.407538,27.7961744 C170.06159,29.2449949 170.389692,30.9802769 170.389692,32.9995077 L170.389692,33.1312513 C170.389692,35.4150462 169.964667,37.4457641 169.115692,39.2241231 C168.265282,41.0024821 167.081026,42.4958154 165.561128,43.7030462 C164.040154,44.9113538 162.226256,45.833559 160.118718,46.4693026 C158.010462,47.1054051 155.674256,47.4245333 153.109385,47.4245333 L153.109385,47.4245333 Z" id="Fill-3" fill="#FFFFFF"></path>
                            <mask id="mask-2" fill="white">
                                <use xlink:href="#path-1"></use>
                            </mask>
                            <g id="Clip-6"></g>
                            <polygon id="Fill-5" fill="#FFFFFF" mask="url(#mask-2)" points="69.6212821 69.7501538 70.7147179 69.7501538 70.7147179 64.7801538 69.6212821 64.7801538"></polygon>
                            <polygon id="Fill-7" fill="#FFFFFF" mask="url(#mask-2)" points="71.9573795 64.7801179 72.9653795 64.7801179 75.2944051 67.8400154 75.2944051 64.7801179 76.3734821 64.7801179 76.3734821 69.7501179 75.4433795 69.7501179 73.0364564 66.5904256 73.0364564 69.7501179 71.9573795 69.7501179"></polygon>
                            <path d="M79.341159,69.8209436 C78.962441,69.8209436 78.5909026,69.7559692 78.2265436,69.6256615 C77.8618256,69.4957128 77.5308513,69.2957641 77.2325436,69.0258154 L77.8786974,68.2518667 C78.1059282,68.4363795 78.3389026,68.5832 78.5779795,68.6919692 C78.8170564,68.8010974 79.0783897,68.8553026 79.3626974,68.8553026 C79.5895692,68.8553026 79.7658256,68.8140205 79.8914667,68.7310974 C80.0167487,68.6485333 80.0795692,68.5336615 80.0795692,68.386841 L80.0795692,68.3724821 C80.0795692,68.3017641 80.0666462,68.2389436 80.040441,68.1843795 C80.0142359,68.1301744 79.9643385,68.0792 79.8907487,68.0318154 C79.817159,67.9844308 79.7152103,67.9370462 79.5849026,67.8896615 C79.4542359,67.8426359 79.284441,67.7927385 79.0758769,67.7406872 C78.8242359,67.6793026 78.5966462,67.6107385 78.3923897,67.5346359 C78.1881333,67.4592513 78.0151077,67.365559 77.8725949,67.2542769 C77.730441,67.1433538 77.6198769,67.0047897 77.5416205,66.8389436 C77.4633641,66.6734564 77.4242359,66.4674051 77.4242359,66.2215077 L77.4242359,66.2071487 C77.4242359,65.9799179 77.4665949,65.7753026 77.5509538,65.5929436 C77.6356718,65.4109436 77.7544923,65.2533538 77.9074154,65.1208923 C78.0603385,64.9884308 78.2426974,64.8864821 78.4548513,64.8154051 C78.6670051,64.7446872 78.9010564,64.7091487 79.1566462,64.7091487 C79.5210051,64.7091487 79.8559282,64.7633538 80.1610564,64.8724821 C80.4665436,64.9812513 80.7469026,65.1374051 81.0024923,65.3409436 L80.4345949,66.1644308 C80.2120308,66.0133026 79.9944923,65.8937641 79.7816205,65.8061744 C79.5683897,65.7185846 79.355159,65.6744308 79.1422872,65.6744308 C78.9294154,65.6744308 78.7696718,65.7160718 78.6630564,65.7989949 C78.5568,65.8819179 78.5033128,65.9845846 78.5033128,66.1077128 L78.5033128,66.1217128 C78.5033128,66.2024821 78.5187487,66.2724821 78.5496205,66.3313538 C78.5804923,66.3905846 78.6361333,66.4437128 78.7169026,66.4910974 C78.7976718,66.5384821 78.9078769,66.5833538 79.0478769,66.6260718 C79.1878769,66.6687897 79.3648513,66.7183282 79.578441,66.7750462 C79.8297231,66.8414564 80.0540821,66.9161231 80.251159,66.9986872 C80.4478769,67.0816103 80.6140821,67.1810462 80.7494154,67.2969949 C80.8847487,67.4129436 80.9866974,67.5489949 81.0556205,67.7051487 C81.1241846,67.8613026 81.1586462,68.0483282 81.1586462,68.2662256 L81.1586462,68.2802256 C81.1586462,68.5264821 81.1141333,68.7454564 81.0247487,68.9371487 C80.9353641,69.128841 80.8108,69.2896615 80.6506974,69.4199692 C80.4909538,69.5502769 80.2999795,69.6493538 80.0784923,69.7179179 C79.8566462,69.7864821 79.6111077,69.8209436 79.341159,69.8209436" id="Fill-8" fill="#FFFFFF" mask="url(#mask-2)"></path>
                            <polygon id="Fill-9" fill="#FFFFFF" mask="url(#mask-2)" points="83.2673333 65.7881897 81.7549744 65.7881897 81.7549744 64.7801897 85.8731282 64.7801897 85.8731282 65.7881897 84.3607692 65.7881897 84.3607692 69.7498308 83.2673333 69.7498308"></polygon>
                            <path d="M89.5650718,67.6697538 L88.9049179,66.057959 L88.2444051,67.6697538 L89.5650718,67.6697538 Z M88.4149179,64.7448308 L89.4229179,64.7448308 L91.5530718,69.7500103 L90.4100974,69.7500103 L89.9556359,68.6353949 L87.853841,68.6353949 L87.3997385,69.7500103 L86.2847641,69.7500103 L88.4149179,64.7448308 Z" id="Fill-10" fill="#FFFFFF" mask="url(#mask-2)"></path>
                            <polygon id="Fill-11" fill="#FFFFFF" mask="url(#mask-2)" points="92.3198769 64.7801179 93.4133128 64.7801179 93.4133128 68.7629385 95.8909538 68.7629385 95.8909538 69.7501179 92.3198769 69.7501179"></polygon>
                            <polygon id="Fill-12" fill="#FFFFFF" mask="url(#mask-2)" points="96.7146923 64.7801179 97.8081282 64.7801179 97.8081282 68.7629385 100.285769 68.7629385 100.285769 69.7501179 96.7146923 69.7501179"></polygon>
                            <path d="M103.96321,67.6697538 L103.303056,66.057959 L102.642544,67.6697538 L103.96321,67.6697538 Z M102.813056,64.7448308 L103.821415,64.7448308 L105.95121,69.7500103 L104.808236,69.7500103 L104.353774,68.6353949 L102.252338,68.6353949 L101.797877,69.7500103 L100.683262,69.7500103 L102.813056,64.7448308 Z" id="Fill-13" fill="#FFFFFF" mask="url(#mask-2)"></path>
                            <polygon id="Fill-14" fill="#FFFFFF" mask="url(#mask-2)" points="107.875564 65.7881897 106.363205 65.7881897 106.363205 64.7801897 110.481 64.7801897 110.481 65.7881897 108.969 65.7881897 108.969 69.7498308 107.875564 69.7498308"></polygon>
                            <polygon id="Fill-15" fill="#FFFFFF" mask="url(#mask-2)" points="111.368564 69.7501538 112.462 69.7501538 112.462 64.7801538 111.368564 64.7801538"></polygon>
                            <path d="M116.132656,68.8269795 C116.350554,68.8269795 116.551579,68.7867744 116.736092,68.7063641 C116.920605,68.6259538 117.078195,68.5146718 117.208503,68.3725179 C117.338451,68.2307231 117.440041,68.0659538 117.513631,67.8792872 C117.587221,67.6922615 117.623836,67.4923128 117.623836,67.279441 L117.623836,67.2650821 C117.623836,67.0518513 117.587221,66.8508256 117.513631,66.6616462 C117.440041,66.4721077 117.336297,66.3066205 117.201323,66.1644667 C117.066349,66.0226718 116.906605,65.9099538 116.722092,65.8273897 C116.537579,65.7444667 116.336195,65.7028256 116.118656,65.7028256 C115.896092,65.7028256 115.693631,65.7433897 115.511272,65.8238 C115.329272,65.9042103 115.173118,66.0154923 115.043169,66.1576462 C114.912503,66.299441 114.810913,66.4638513 114.737682,66.6508769 C114.664092,66.8379026 114.627477,67.0378513 114.627477,67.2507231 L114.627477,67.2650821 C114.627477,67.4779538 114.664092,67.6793385 114.737682,67.8685179 C114.810913,68.0576974 114.915374,68.2235436 115.04999,68.3653385 C115.184964,68.5074923 115.343631,68.6202103 115.52599,68.7027744 C115.70799,68.7856974 115.910092,68.8269795 116.132656,68.8269795 M116.118656,69.8353385 C115.735272,69.8353385 115.3824,69.7678513 115.0604,69.6328769 C114.738759,69.4979026 114.460913,69.3159026 114.226503,69.086159 C113.992092,68.8567744 113.809733,68.5868256 113.679785,68.2766718 C113.549477,67.9668769 113.484503,67.6344667 113.484503,67.279441 L113.484503,67.2650821 C113.484503,66.9100564 113.550554,66.5776462 113.683374,66.2674923 C113.815836,65.9573385 113.999272,65.6852359 114.233323,65.4511846 C114.467733,65.2167744 114.747015,65.0319026 115.071169,64.8972872 C115.395323,64.7623128 115.749272,64.6948256 116.132656,64.6948256 C116.5164,64.6948256 116.868554,64.7623128 117.190554,64.8972872 C117.512554,65.0319026 117.7904,65.2142615 118.02481,65.4440051 C118.259221,65.6733897 118.441221,65.9433385 118.571528,66.2534923 C118.701477,66.5632872 118.76681,66.8956974 118.76681,67.2507231 L118.76681,67.2650821 C118.76681,67.6201077 118.700759,67.9525179 118.568297,68.2626718 C118.435118,68.5724667 118.252041,68.8449282 118.017631,69.0789795 C117.783579,69.3133897 117.503938,69.4979026 117.179785,69.6328769 C116.85599,69.7678513 116.501682,69.8353385 116.118656,69.8353385" id="Fill-16" fill="#FFFFFF" mask="url(#mask-2)"></path>
                            <polygon id="Fill-17" fill="#FFFFFF" mask="url(#mask-2)" points="119.739451 64.7801179 120.74781 64.7801179 123.076118 67.8400154 123.076118 64.7801179 124.155554 64.7801179 124.155554 69.7501179 123.225451 69.7501179 120.818528 66.5904256 120.818528 69.7501179 119.739451 69.7501179"></polygon>
                            <path d="M129.252918,69.8209436 C128.8742,69.8209436 128.502662,69.7559692 128.138303,69.6256615 C127.773944,69.4957128 127.44261,69.2957641 127.144303,69.0258154 L127.790456,68.2518667 C128.017687,68.4363795 128.250662,68.5832 128.489738,68.6919692 C128.728815,68.8010974 128.990149,68.8553026 129.274456,68.8553026 C129.501687,68.8553026 129.677944,68.8140205 129.803226,68.7310974 C129.928508,68.6485333 129.991687,68.5336615 129.991687,68.386841 L129.991687,68.3724821 C129.991687,68.3017641 129.978405,68.2389436 129.9522,68.1843795 C129.925995,68.1301744 129.876097,68.0792 129.802508,68.0318154 C129.729277,67.9844308 129.626969,67.9370462 129.496662,67.8896615 C129.366354,67.8426359 129.196559,67.7927385 128.987636,67.7406872 C128.735995,67.6793026 128.508046,67.6107385 128.304149,67.5346359 C128.099892,67.4592513 127.926867,67.365559 127.784713,67.2542769 C127.6422,67.1433538 127.531995,67.0047897 127.453379,66.8389436 C127.375123,66.6734564 127.336354,66.4674051 127.336354,66.2215077 L127.336354,66.2071487 C127.336354,65.9799179 127.378354,65.7753026 127.463072,65.5929436 C127.54779,65.4109436 127.666251,65.2533538 127.819533,65.1208923 C127.972097,64.9884308 128.154456,64.8864821 128.36661,64.8154051 C128.578764,64.7446872 128.812815,64.7091487 129.068405,64.7091487 C129.432764,64.7091487 129.767687,64.7633538 130.073174,64.8724821 C130.378662,64.9812513 130.659021,65.1374051 130.914251,65.3409436 L130.346713,66.1644308 C130.124149,66.0133026 129.906251,65.8937641 129.693379,65.8061744 C129.480149,65.7185846 129.267277,65.6744308 129.054405,65.6744308 C128.841533,65.6744308 128.681431,65.7160718 128.575174,65.7989949 C128.468559,65.8819179 128.415431,65.9845846 128.415431,66.1077128 L128.415431,66.1217128 C128.415431,66.2024821 128.430508,66.2724821 128.461379,66.3313538 C128.49261,66.3905846 128.547892,66.4437128 128.629021,66.4910974 C128.709431,66.5384821 128.819995,66.5833538 128.959636,66.6260718 C129.099995,66.6687897 129.276251,66.7183282 129.4902,66.7750462 C129.741841,66.8414564 129.965841,66.9161231 130.162918,66.9986872 C130.359995,67.0816103 130.5262,67.1810462 130.661174,67.2969949 C130.796508,67.4129436 130.898456,67.5489949 130.967021,67.7051487 C131.035944,67.8613026 131.070764,68.0483282 131.070764,68.2662256 L131.070764,68.2802256 C131.070764,68.5264821 131.025892,68.7454564 130.936508,68.9371487 C130.847123,69.128841 130.722918,69.2896615 130.562815,69.4199692 C130.402713,69.5502769 130.212097,69.6493538 129.990251,69.7179179 C129.768764,69.7864821 129.522867,69.8209436 129.252918,69.8209436" id="Fill-18" fill="#FFFFFF" mask="url(#mask-2)"></path>
                            <path d="M134.450256,68.8269795 C134.668154,68.8269795 134.869179,68.7867744 135.053692,68.7063641 C135.238205,68.6259538 135.395795,68.5146718 135.526103,68.3725179 C135.656051,68.2307231 135.757641,68.0659538 135.831231,67.8792872 C135.904462,67.6922615 135.941436,67.4923128 135.941436,67.279441 L135.941436,67.2650821 C135.941436,67.0518513 135.904462,66.8508256 135.831231,66.6616462 C135.757641,66.4721077 135.653897,66.3066205 135.518923,66.1644667 C135.383949,66.0226718 135.224205,65.9099538 135.039692,65.8273897 C134.855179,65.7444667 134.653436,65.7028256 134.436256,65.7028256 C134.213692,65.7028256 134.011231,65.7433897 133.828872,65.8238 C133.646872,65.9042103 133.490718,66.0154923 133.360769,66.1576462 C133.230103,66.299441 133.128513,66.4638513 133.055282,66.6508769 C132.981692,66.8379026 132.945077,67.0378513 132.945077,67.2507231 L132.945077,67.2650821 C132.945077,67.4779538 132.981692,67.6793385 133.055282,67.8685179 C133.128513,68.0576974 133.232974,68.2235436 133.36759,68.3653385 C133.502564,68.5074923 133.661231,68.6202103 133.843231,68.7027744 C134.02559,68.7856974 134.227692,68.8269795 134.450256,68.8269795 M134.436256,69.8353385 C134.052872,69.8353385 133.7,69.7678513 133.378,69.6328769 C133.056359,69.4979026 132.778154,69.3159026 132.544103,69.086159 C132.309692,68.8567744 132.127333,68.5868256 131.997385,68.2766718 C131.867077,67.9668769 131.802103,67.6344667 131.802103,67.279441 L131.802103,67.2650821 C131.802103,66.9100564 131.868154,66.5776462 132.000974,66.2674923 C132.133436,65.9573385 132.316872,65.6852359 132.550923,65.4511846 C132.785333,65.2167744 133.064615,65.0319026 133.388769,64.8972872 C133.712923,64.7623128 134.066872,64.6948256 134.450256,64.6948256 C134.833641,64.6948256 135.186154,64.7623128 135.508154,64.8972872 C135.830154,65.0319026 136.108,65.2142615 136.34241,65.4440051 C136.576821,65.6733897 136.758821,65.9433385 136.889128,66.2534923 C137.019077,66.5632872 137.08441,66.8956974 137.08441,67.2507231 L137.08441,67.2650821 C137.08441,67.6201077 137.018,67.9525179 136.885538,68.2626718 C136.752718,68.5724667 136.569641,68.8449282 136.335231,69.0789795 C136.100821,69.3133897 135.821538,69.4979026 135.497385,69.6328769 C135.173231,69.7678513 134.819282,69.8353385 134.436256,69.8353385" id="Fill-19" fill="#FFFFFF" mask="url(#mask-2)"></path>
                            <polygon id="Fill-20" fill="#FFFFFF" mask="url(#mask-2)" points="138.056944 64.7801179 139.150379 64.7801179 139.150379 68.7629385 141.628021 68.7629385 141.628021 69.7501179 138.056944 69.7501179"></polygon>
                            <path d="M144.524836,69.828159 C143.857503,69.828159 143.332323,69.6432872 142.948579,69.2742615 C142.565554,68.9052359 142.373862,68.3538513 142.373862,67.6201077 L142.373862,64.7802615 L143.467297,64.7802615 L143.467297,67.5917487 C143.467297,67.9988256 143.561708,68.3050308 143.751246,68.5110821 C143.940067,68.7171333 144.203195,68.8198 144.539195,68.8198 C144.875195,68.8198 145.137605,68.7207231 145.327503,68.5218513 C145.516682,68.3229795 145.611092,68.0246718 145.611092,67.6269282 L145.611092,64.7802615 L146.704887,64.7802615 L146.704887,67.5845692 C146.704887,67.9632872 146.653554,68.2921077 146.551964,68.5713897 C146.450374,68.8506718 146.304631,69.0836462 146.115451,69.2706718 C145.926272,69.4576974 145.696528,69.5973385 145.426579,69.6895949 C145.15699,69.7818513 144.856169,69.828159 144.524836,69.828159" id="Fill-21" fill="#FFFFFF" mask="url(#mask-2)"></path>
                            <polygon id="Fill-22" fill="#FFFFFF" mask="url(#mask-2)" points="148.976477 65.7881897 147.464118 65.7881897 147.464118 64.7801897 151.581913 64.7801897 151.581913 65.7881897 150.069913 65.7881897 150.069913 69.7498308 148.976477 69.7498308"></polygon>
                            <polygon id="Fill-23" fill="#FFFFFF" mask="url(#mask-2)" points="152.469692 69.7501538 153.563128 69.7501538 153.563128 64.7801538 152.469692 64.7801538"></polygon>
                            <path d="M157.233569,68.8269795 C157.451467,68.8269795 157.652492,68.7867744 157.837005,68.7063641 C158.021518,68.6259538 158.179108,68.5146718 158.309415,68.3725179 C158.439364,68.2307231 158.540954,68.0659538 158.614544,67.8792872 C158.688133,67.6922615 158.724749,67.4923128 158.724749,67.279441 L158.724749,67.2650821 C158.724749,67.0518513 158.688133,66.8508256 158.614544,66.6616462 C158.540954,66.4721077 158.43721,66.3066205 158.302236,66.1644667 C158.167262,66.0226718 158.007518,65.9099538 157.823005,65.8273897 C157.638492,65.7444667 157.437108,65.7028256 157.219569,65.7028256 C156.997005,65.7028256 156.794544,65.7433897 156.612185,65.8238 C156.430185,65.9042103 156.274031,66.0154923 156.144082,66.1576462 C156.013415,66.299441 155.911826,66.4638513 155.838595,66.6508769 C155.765005,66.8379026 155.72839,67.0378513 155.72839,67.2507231 L155.72839,67.2650821 C155.72839,67.4779538 155.765005,67.6793385 155.838595,67.8685179 C155.911826,68.0576974 156.016287,68.2235436 156.150903,68.3653385 C156.285877,68.5074923 156.444544,68.6202103 156.626903,68.7027744 C156.808903,68.7856974 157.011005,68.8269795 157.233569,68.8269795 M157.219569,69.8353385 C156.836185,69.8353385 156.483672,69.7678513 156.161313,69.6328769 C155.839672,69.4979026 155.561467,69.3159026 155.327415,69.086159 C155.093005,68.8567744 154.910646,68.5868256 154.780697,68.2766718 C154.65039,67.9668769 154.585415,67.6344667 154.585415,67.279441 L154.585415,67.2650821 C154.585415,66.9100564 154.651467,66.5776462 154.784287,66.2674923 C154.916749,65.9573385 155.100185,65.6852359 155.334236,65.4511846 C155.568646,65.2167744 155.847928,65.0319026 156.172082,64.8972872 C156.496236,64.7623128 156.850185,64.6948256 157.233569,64.6948256 C157.617313,64.6948256 157.969467,64.7623128 158.291467,64.8972872 C158.613467,65.0319026 158.891313,65.2142615 159.125723,65.4440051 C159.360133,65.6733897 159.542133,65.9433385 159.672441,66.2534923 C159.80239,66.5632872 159.867723,66.8956974 159.867723,67.2507231 L159.867723,67.2650821 C159.867723,67.6201077 159.801313,67.9525179 159.66921,68.2626718 C159.53639,68.5724667 159.352954,68.8449282 159.118544,69.0789795 C158.884492,69.3133897 158.604851,69.4979026 158.280697,69.6328769 C157.956903,69.7678513 157.602595,69.8353385 157.219569,69.8353385" id="Fill-24" fill="#FFFFFF" mask="url(#mask-2)"></path>
                            <polygon id="Fill-25" fill="#FFFFFF" mask="url(#mask-2)" points="160.840328 64.7801179 161.848687 64.7801179 164.176995 67.8400154 164.176995 64.7801179 165.256431 64.7801179 165.256431 69.7501179 164.326328 69.7501179 161.919405 66.5904256 161.919405 69.7501179 160.840328 69.7501179"></polygon>
                            <path d="M168.224,69.8209436 C167.845282,69.8209436 167.473744,69.7559692 167.109385,69.6256615 C166.745026,69.4957128 166.413692,69.2957641 166.115385,69.0258154 L166.761538,68.2518667 C166.988769,68.4363795 167.221744,68.5832 167.460821,68.6919692 C167.699897,68.8010974 167.961231,68.8553026 168.245538,68.8553026 C168.472769,68.8553026 168.649026,68.8140205 168.774308,68.7310974 C168.899949,68.6485333 168.96241,68.5336615 168.96241,68.386841 L168.96241,68.3724821 C168.96241,68.3017641 168.949487,68.2389436 168.923282,68.1843795 C168.897077,68.1301744 168.847179,68.0792 168.77359,68.0318154 C168.700359,67.9844308 168.598051,67.9370462 168.467744,67.8896615 C168.337436,67.8426359 168.167641,67.7927385 167.958718,67.7406872 C167.707436,67.6793026 167.479487,67.6107385 167.275231,67.5346359 C167.071333,67.4592513 166.897949,67.365559 166.755795,67.2542769 C166.613282,67.1433538 166.503077,67.0047897 166.424462,66.8389436 C166.346205,66.6734564 166.307436,66.4674051 166.307436,66.2215077 L166.307436,66.2071487 C166.307436,65.9799179 166.349436,65.7753026 166.434154,65.5929436 C166.518872,65.4109436 166.637333,65.2533538 166.790256,65.1208923 C166.943179,64.9884308 167.125538,64.8864821 167.337692,64.8154051 C167.549846,64.7446872 167.783897,64.7091487 168.039487,64.7091487 C168.403846,64.7091487 168.738769,64.7633538 169.044256,64.8724821 C169.349744,64.9812513 169.630103,65.1374051 169.885692,65.3409436 L169.317795,66.1644308 C169.095231,66.0133026 168.877333,65.8937641 168.664462,65.8061744 C168.451231,65.7185846 168.238359,65.6744308 168.025487,65.6744308 C167.812615,65.6744308 167.652513,65.7160718 167.546256,65.7989949 C167.439641,65.8819179 167.386513,65.9845846 167.386513,66.1077128 L167.386513,66.1217128 C167.386513,66.2024821 167.40159,66.2724821 167.432462,66.3313538 C167.463333,66.3905846 167.518974,66.4437128 167.600103,66.4910974 C167.680872,66.5384821 167.791077,66.5833538 167.930718,66.6260718 C168.071077,66.6687897 168.247333,66.7183282 168.461282,66.7750462 C168.712923,66.8414564 168.936923,66.9161231 169.134,66.9986872 C169.331077,67.0816103 169.497282,67.1810462 169.632256,67.2969949 C169.76759,67.4129436 169.869538,67.5489949 169.938462,67.7051487 C170.007026,67.8613026 170.041846,68.0483282 170.041846,68.2662256 L170.041846,68.2802256 C170.041846,68.5264821 169.996974,68.7454564 169.90759,68.9371487 C169.818205,69.128841 169.694,69.2896615 169.533897,69.4199692 C169.373795,69.5502769 169.183179,69.6493538 168.961333,69.7179179 C168.739846,69.7864821 168.493949,69.8209436 168.224,69.8209436" id="Fill-26" fill="#FFFFFF" mask="url(#mask-2)"></path>
                            <polygon id="Fill-27" fill="#FFFFFF" mask="url(#mask-2)" points="69.5382513 50.9311744 78.5951744 50.9311744 78.5951744 53.2921487 72.1558923 53.2921487 72.1558923 55.8584564 77.830559 55.8584564 77.830559 58.2201487 72.1558923 58.2201487 72.1558923 62.8250718 69.5382513 62.8250718"></polygon>
                            <path d="M85.6458974,63.0115949 C84.0488205,63.0115949 82.7920513,62.5704154 81.8737949,61.6869795 C80.9569744,60.8031846 80.4978462,59.4828769 80.4978462,57.7282103 L80.4978462,50.9310308 L83.1140513,50.9310308 L83.1140513,57.6589282 C83.1140513,58.6339026 83.3409231,59.3665692 83.7943077,59.860159 C84.2466154,60.3526718 84.8758974,60.5985692 85.680359,60.5985692 C86.4837436,60.5985692 87.1130256,60.3609282 87.5664103,59.8852872 C88.0187179,59.4096462 88.2455897,58.6960051 88.2455897,57.7447231 L88.2455897,50.9310308 L90.8628718,50.9310308 L90.8628718,57.6424154 C90.8628718,58.5495436 90.7415385,59.3360564 90.4981538,60.0041077 C90.2533333,60.6732359 89.9047692,61.2307231 89.4524615,61.6787231 C88.9990769,62.1252872 88.4502051,62.4598513 87.8044103,62.6809795 C87.1586154,62.9010308 86.4395897,63.0115949 85.6458974,63.0115949" id="Fill-28" fill="#FFFFFF" mask="url(#mask-2)"></path>
                            <path d="M98.7972462,56.7076103 C99.443041,56.7076103 99.9395026,56.5554051 100.285195,56.2499179 C100.629451,55.9429949 100.802118,55.5352 100.802118,55.0261744 L100.802118,54.9917128 C100.802118,54.4259692 100.621195,54.0002256 100.25899,53.7180718 C99.8964256,53.434841 99.3931436,53.2923282 98.7473487,53.2923282 L96.1480154,53.2923282 L96.1480154,56.7076103 L98.7972462,56.7076103 Z M93.5303744,50.9313538 L98.9674,50.9313538 C100.474374,50.9313538 101.629195,51.3334051 102.434015,52.1375077 C103.114272,52.8166872 103.452785,53.7234564 103.452785,54.8560205 L103.452785,54.890841 C103.452785,55.8532513 103.218015,56.6372513 102.747759,57.242841 C102.277503,57.8498667 101.663656,58.293559 100.904426,58.5771487 L103.809605,62.8248923 L100.752579,62.8248923 L98.2027846,59.0183282 L98.1694,59.0183282 L96.1480154,59.0183282 L96.1480154,62.8248923 L93.5303744,62.8248923 L93.5303744,50.9313538 Z" id="Fill-29" fill="#FFFFFF" mask="url(#mask-2)"></path>
                            <polygon id="Fill-30" fill="#FFFFFF" mask="url(#mask-2)" points="105.814692 50.9311744 108.227718 50.9311744 113.801513 58.2549692 113.801513 50.9311744 116.382897 50.9311744 116.382897 62.8250718 114.158333 62.8250718 108.397513 55.2639949 108.397513 62.8250718 105.814692 62.8250718"></polygon>
                            <polygon id="Fill-31" fill="#FFFFFF" mask="url(#mask-2)" points="119.356103 62.8248205 121.973744 62.8248205 121.973744 50.9312821 119.356103 50.9312821"></polygon>
                            <polygon id="Fill-32" fill="#FFFFFF" mask="url(#mask-2)" points="127.716077 53.3434103 124.097256 53.3434103 124.097256 50.9311026 133.952179 50.9311026 133.952179 53.3434103 130.332282 53.3434103 130.332282 62.825 127.716077 62.825"></polygon>
                            <path d="M140.917179,63.0115949 C139.320103,63.0115949 138.063333,62.5704154 137.145077,61.6869795 C136.228256,60.8031846 135.769128,59.4828769 135.769128,57.7282103 L135.769128,50.9310308 L138.385333,50.9310308 L138.385333,57.6589282 C138.385333,58.6339026 138.612205,59.3665692 139.06559,59.860159 C139.517897,60.3526718 140.146821,60.5985692 140.951641,60.5985692 C141.755026,60.5985692 142.384308,60.3609282 142.837692,59.8852872 C143.29,59.4096462 143.516872,58.6960051 143.516872,57.7447231 L143.516872,50.9310308 L146.134154,50.9310308 L146.134154,57.6424154 C146.134154,58.5495436 146.012462,59.3360564 145.769436,60.0041077 C145.524615,60.6732359 145.176051,61.2307231 144.723744,61.6787231 C144.270359,62.1252872 143.721487,62.4598513 143.075692,62.6809795 C142.429897,62.9010308 141.710872,63.0115949 140.917179,63.0115949" id="Fill-33" fill="#FFFFFF" mask="url(#mask-2)"></path>
                            <path d="M154.068528,56.7076103 C154.714323,56.7076103 155.210785,56.5554051 155.556477,56.2499179 C155.900733,55.9429949 156.0734,55.5352 156.0734,55.0261744 L156.0734,54.9917128 C156.0734,54.4259692 155.892477,54.0002256 155.530272,53.7180718 C155.167708,53.434841 154.664426,53.2923282 154.018631,53.2923282 L151.419297,53.2923282 L151.419297,56.7076103 L154.068528,56.7076103 Z M148.801656,50.9313538 L154.238682,50.9313538 C155.745656,50.9313538 156.900477,51.3334051 157.705297,52.1375077 C158.385554,52.8166872 158.724426,53.7234564 158.724426,54.8560205 L158.724426,54.890841 C158.724426,55.8532513 158.489297,56.6372513 158.019041,57.242841 C157.548785,57.8498667 156.934938,58.293559 156.175708,58.5771487 L159.080887,62.8248923 L156.023862,62.8248923 L153.474067,59.0183282 L153.440682,59.0183282 L151.419297,59.0183282 L151.419297,62.8248923 L148.801656,62.8248923 L148.801656,50.9313538 Z" id="Fill-34" fill="#FFFFFF" mask="url(#mask-2)"></path>
                            <polygon id="Fill-35" fill="#FFFFFF" mask="url(#mask-2)" points="161.085974 50.9311744 170.04059 50.9311744 170.04059 53.2591231 163.668795 53.2591231 163.668795 55.6717897 169.275974 55.6717897 169.275974 57.9990205 163.668795 57.9990205 163.668795 60.497841 170.124949 60.497841 170.124949 62.8250718 161.085974 62.8250718"></polygon>
                            <path d="M58.0235385,30.3021385 L29.7162564,1.99485641 C28.9774872,1.25572821 27.72,1.25429231 26.9794359,1.99485641 C18.1755897,10.7987026 9.37174359,19.6025487 0.567897436,28.4060359 C0.144307692,28.8299846 -0.0175897436,29.3095744 0.00215384615,29.7697795 C-0.0204615385,30.2328564 0.141076923,30.7163949 0.567897436,31.1432154 C10.0035385,40.5788564 19.4395385,50.0148564 28.8751795,59.4504974 C29.6143077,60.1896256 30.8714359,60.1910615 31.612359,59.4504974 C40.4162051,50.6466513 49.2196923,41.8428051 58.0235385,33.0393179 C58.7626667,32.3001897 58.7644615,31.0427026 58.0235385,30.3021385" id="Fill-36" stroke="#FFFFFF" fill="#5B391D" mask="url(#mask-2)"></path>
                            <path d="M42.2718154,45.2186359 C42.2710974,45.2096615 42.2714564,45.2006872 42.2707385,45.1917128 C42.2732513,44.9092 42.1716615,44.6173538 41.9117641,44.3581744 C40.7052513,43.1527385 39.4983795,41.9473026 38.2918667,40.7418667 C37.8194564,40.2701744 37.0160718,40.2683795 36.5429436,40.7418667 C32.9165846,44.3725333 29.2898667,48.002841 25.6635077,51.6335077 C25.1918154,52.1059179 25.1896615,52.9089436 25.6635077,53.3824308 C26.8703795,54.5875077 28.0768923,55.7929436 29.2837641,56.9983795 C29.7561744,57.4704308 30.5592,57.4722256 31.0326872,56.9983795 C34.6590462,53.3680718 38.2854051,49.7374051 41.9117641,46.1070974 C42.1677128,45.8511487 42.2696615,45.5636103 42.2696615,45.2843282 C42.2718154,45.2624308 42.2707385,45.2405333 42.2718154,45.2186359" id="Fill-37" fill="#FFFFFF" mask="url(#mask-2)"></path>
                            <path d="M56.2186872,31.5949128 C56.2183282,31.5866564 56.2183282,31.578759 56.2179692,31.5705026 C56.2201231,31.3167077 56.1285846,31.0542974 55.8952513,30.8213231 C46.9761744,21.9112205 38.0570974,13.0014769 29.1383795,4.09137436 C28.7133538,3.66706667 27.9910974,3.66527179 27.5653538,4.09137436 C23.9939179,7.66711795 20.4224821,11.2432205 16.8510462,14.8189641 C16.4267385,15.2436308 16.4249436,15.9658872 16.8510462,16.3916308 C25.7697641,25.3013744 34.688841,34.2114769 43.6079179,43.1212205 C44.0325846,43.5455282 44.754841,43.5473231 45.1805846,43.1212205 C48.7520205,39.5454769 52.3234564,35.9697333 55.8952513,32.3939897 C56.1249949,32.1638872 56.2165333,31.9050667 56.2168923,31.6541436 C56.2186872,31.6344 56.2179692,31.6146564 56.2186872,31.5949128" id="Fill-38" fill="#FFFFFF" mask="url(#mask-2)"></path>
                            <path d="M35.4668821,38.4156051 C35.4665231,38.4066308 35.4668821,38.3980154 35.4661641,38.389041 C35.4686769,38.1065282 35.3667282,37.8146821 35.1071897,37.5555026 C33.9003179,36.3500667 32.6938051,35.1446308 31.4869333,33.9391949 C31.0148821,33.4675026 30.2114974,33.4657077 29.7383692,33.9391949 C26.1123692,37.5695026 22.4863692,41.1994513 18.8603692,44.8294 C18.3886769,45.3014513 18.3865231,46.1048359 18.8603692,46.5779641 C20.067241,47.7834 21.2737538,48.9888359 22.4806256,50.1942718 C22.9530359,50.6659641 23.7560615,50.6681179 24.2291897,50.1942718 C27.8551897,46.5643231 31.4811897,42.9343744 35.1071897,39.3044256 C35.3627795,39.0484769 35.4647282,38.7609385 35.4650872,38.4820154 C35.467241,38.459759 35.4661641,38.4378615 35.4668821,38.4156051" id="Fill-39" fill="#FFFFFF" mask="url(#mask-2)"></path>
                            <path d="M44.0237897,20.5225282 C44.2668154,20.7655538 44.2811744,21.1446308 44.0564564,21.3693487 C43.8317385,21.5940667 43.4526615,21.5797077 43.2096359,21.3366821 C42.9666103,21.0936564 42.9522513,20.7145795 43.1769692,20.4898615 C43.4016872,20.2651436 43.7807641,20.2795026 44.0237897,20.5225282" id="Fill-40" fill="#754C24" mask="url(#mask-2)"></path>
                            <path d="M24.3978359,41.5671128 L26.4841949,39.4807538" id="Fill-41" fill="#1D1D1B" mask="url(#mask-2)"></path>
                            <polygon id="Fill-42" fill="#754C24" mask="url(#mask-2)" points="24.5246974 41.6939744 24.2709026 41.4401795 26.3569026 39.3538205 26.6106974 39.6079744"></polygon>
                            <path d="M31.1554205,48.3246974 L33.2417795,46.2383385" id="Fill-43" fill="#1D1D1B" mask="url(#mask-2)"></path>
                            <polygon id="Fill-44" fill="#754C24" mask="url(#mask-2)" points="31.2824615 48.451559 31.0286667 48.1977641 33.1150256 46.1114051 33.3688205 46.3652"></polygon>
                        </g>
                    </g>
                </g>
            </g>
        </g>
    </g>
</svg>